ffmpeg started on 2016-11-24 at 01:22:52
Report written to "Output/NVENCh264/results/ffmpeg/sintelfast12000k.log"
Command line:
Tools/ffmpeg/ffmpeg -benchmark -y -i Input/y4m/sintel.y4m -c:v h264_nvenc -preset fast -b:v 12000k -an Output/NVENCh264/encoded/sintelfast12000k.mkv
ffmpeg version N-82227-gdb23fde Copyright (c) 2000-2016 the FFmpeg developers
  built with gcc 5.4.0 (Ubuntu 5.4.0-6ubuntu1~16.04.2) 20160609
  configuration: --prefix=/home/jaroslav/ffmpeg_build --pkg-config-flags=--static --extra-cflags=-I/home/jaroslav/ffmpeg_build/include --extra-ldflags=-L/home/jaroslav/ffmpeg_build/lib --bindir=/home/jaroslav/bin --enable-gpl --enable-libass --enable-libfdk-aac --enable-libfreetype --enable-libmp3lame --enable-libopus --enable-libtheora --enable-libvorbis --enable-libvpx --enable-libx264 --enable-libx265 --enable-nvenc --enable-libmfx --enable-libxvid --enable-libgsm --enable-libopencore-amrnb --enable-version3 --enable-nonfree
  libavutil      55. 35.100 / 55. 35.100
  libavcodec     57. 66.101 / 57. 66.101
  libavformat    57. 57.100 / 57. 57.100
  libavdevice    57.  2.100 / 57.  2.100
  libavfilter     6. 66.100 /  6. 66.100
  libswscale      4.  3.100 /  4.  3.100
  libswresample   2.  4.100 /  2.  4.100
  libpostproc    54.  2.100 / 54.  2.100
Input #0, yuv4mpegpipe, from 'Input/y4m/sintel.y4m':
  Duration: 00:00:20.83, start: 0.000000, bitrate: 2057307 kb/s
    Stream #0:0: Video: rawvideo (I420 / 0x30323449), yuv420p(progressive), 4096x1744, SAR 1:1 DAR 256:109, 24 fps, 24 tbr, 24 tbn, 24 tbc
Output #0, matroska, to 'Output/NVENCh264/encoded/sintelfast12000k.mkv':
  Metadata:
    encoder         : Lavf57.57.100
    Stream #0:0: Video: h264 (h264_nvenc) (Main) (H264 / 0x34363248), yuv420p, 4096x1744 [SAR 1:1 DAR 256:109], q=-1--1, 12000 kb/s, 24 fps, 1k tbn, 24 tbc
    Metadata:
      encoder         : Lavc57.66.101 h264_nvenc
    Side data:
      cpb: bitrate max/min/avg: 0/0/12000000 buffer size: 24000000 vbv_delay: -1
Stream mapping:
  Stream #0:0 -> #0:0 (rawvideo (native) -> h264 (h264_nvenc))
Press [q] to stop, [?] for help
frame=   18 fps=0.0 q=0.0 size=       0kB time=00:00:00.00 bitrate=N/A speed=   0x    frame=   39 fps= 38 q=33.0 size=       1kB time=00:00:00.33 bitrate=  17.6kbits/s speed=0.324x    frame=   60 fps= 39 q=35.0 size=       1kB time=00:00:01.20 bitrate=   4.9kbits/s speed=0.786x    frame=   81 fps= 40 q=34.0 size=       1kB time=00:00:02.08 bitrate=   2.8kbits/s speed=1.02x    frame=  102 fps= 40 q=34.0 size=       1kB time=00:00:02.95 bitrate=   2.0kbits/s speed=1.16x    frame=  122 fps= 40 q=33.0 size=    5152kB time=00:00:03.79 bitrate=11127.5kbits/s speed=1.24x    frame=  143 fps= 40 q=32.0 size=    5152kB time=00:00:04.66 bitrate=9041.7kbits/s speed=1.31x    frame=  164 fps= 40 q=33.0 size=    7289kB time=00:00:05.54 bitrate=10772.8kbits/s speed=1.36x    frame=  171 fps= 25 q=33.0 size=    7289kB time=00:00:05.83 bitrate=10235.5kbits/s speed=0.839x    frame=  172 fps= 16 q=33.0 size=    7289kB time=00:00:05.87 bitrate=10162.3kbits/s speed=0.557x    frame=  173 fps= 14 q=33.0 size=    7289kB time=00:00:05.91 bitrate=10090.2kbits/s speed=0.474x    frame=  194 fps= 15 q=32.0 size=    7289kB time=00:00:06.79 bitrate=8790.5kbits/s speed=0.522x    frame=  215 fps= 16 q=34.0 size=    7289kB time=00:00:07.66 bitrate=7787.4kbits/s speed=0.567x    frame=  236 fps= 17 q=33.0 size=    7289kB time=00:00:08.54 bitrate=6989.8kbits/s speed=0.609x    frame=  256 fps= 18 q=33.0 size=   12435kB time=00:00:09.37 bitrate=10864.6kbits/s speed=0.646x    frame=  277 fps= 18 q=32.0 size=   12435kB time=00:00:10.25 bitrate=9937.2kbits/s speed=0.682x    frame=  298 fps= 19 q=32.0 size=   15078kB time=00:00:11.12 bitrate=11101.6kbits/s speed=0.715x    frame=  319 fps= 20 q=31.0 size=   15078kB time=00:00:12.00 bitrate=10292.2kbits/s speed=0.747x    frame=  340 fps= 21 q=28.0 size=   15078kB time=00:00:12.87 bitrate=9592.8kbits/s speed=0.777x    frame=  361 fps= 21 q=28.0 size=   15078kB time=00:00:13.75 bitrate=8982.4kbits/s speed=0.805x    frame=  382 fps= 22 q=27.0 size=   15078kB time=00:00:14.62 bitrate=8445.0kbits/s speed=0.831x    frame=  403 fps= 22 q=27.0 size=   15078kB time=00:00:15.50 bitrate=7968.3kbits/s speed=0.856x    frame=  423 fps= 23 q=27.0 size=   20206kB time=00:00:16.33 bitrate=10133.9kbits/s speed=0.878x    frame=  444 fps= 23 q=28.0 size=   20206kB time=00:00:17.20 bitrate=9618.6kbits/s speed= 0.9x    frame=  465 fps= 24 q=28.0 size=   22260kB time=00:00:18.08 bitrate=10083.9kbits/s speed=0.921x    frame=  486 fps= 24 q=28.0 size=   22260kB time=00:00:18.95 bitrate=9618.5kbits/s speed=0.941x    frame=  500 fps= 24 q=28.0 Lsize=   27446kB time=00:00:20.79 bitrate=10813.1kbits/s speed=1.01x    
video:27441kB audio:0kB subtitle:0kB other streams:0kB global headers:0kB muxing overhead: 0.017755%
bench: utime=0.736s
bench: maxrss=838200kB
